<svg width="24" height="24" viewBox="0 0 24 24" fill="none" xmlns="http://www.w3.org/2000/svg">
<path d="M18.3298 14.4037C19.865 12.2311 20.5137 9.63982 20.1579 7.10622C20.007 6.03448 19.6465 5.00295 19.097 4.07053C18.5474 3.13811 17.8196 2.32307 16.955 1.67194C16.0905 1.02081 15.1062 0.546346 14.0583 0.275635C13.0103 0.00492412 11.9194 -0.05673 10.8476 0.0941929C6.34762 0.726537 3.20044 4.90263 3.83278 9.40263C4.18762 11.9287 5.52591 14.2383 7.60012 15.9061C8.75231 16.8286 10.0522 17.4764 11.2854 17.7661C11.3787 17.7885 11.4598 17.8458 11.5121 17.9262C11.5644 18.0065 11.584 18.1039 11.5667 18.1983L11.3384 19.4348C11.3052 19.6031 11.3297 19.7776 11.4078 19.9303C11.4712 20.052 11.5668 20.154 11.6841 20.2252C11.8015 20.2964 11.9361 20.334 12.0734 20.3339C12.1084 20.334 12.1433 20.3314 12.1779 20.3264L13.0128 20.2092C13.0327 20.2064 13.0529 20.2101 13.0706 20.2197C13.0882 20.2294 13.1023 20.2444 13.1108 20.2626C13.8945 21.9647 15.2417 23.2556 16.9615 23.9358C17.0557 23.9729 17.1564 23.9907 17.2575 23.9879C17.3587 23.9852 17.4583 23.962 17.5503 23.9197C17.6423 23.8775 17.7247 23.817 17.7927 23.742C17.8607 23.667 17.9128 23.5791 17.9459 23.4834C18.0786 23.1 17.869 22.6833 17.4922 22.5328C16.3155 22.0627 15.3347 21.2047 14.7125 20.1009C14.7046 20.0876 14.7001 20.0726 14.6995 20.0571C14.6988 20.0417 14.702 20.0263 14.7087 20.0124C14.7155 19.9985 14.7255 19.9864 14.738 19.9773C14.7506 19.9682 14.7651 19.9624 14.7804 19.9603L15.1273 19.9134C15.3088 19.89 15.4762 19.8032 15.5998 19.6683C15.6998 19.5564 15.764 19.417 15.7839 19.2683C15.8039 19.1195 15.7788 18.9682 15.7118 18.8339L15.1465 17.6981C15.1036 17.6118 15.0955 17.5123 15.1239 17.4202C15.1524 17.3282 15.2152 17.2506 15.2993 17.2036C16.4051 16.5862 17.4767 15.6098 18.3298 14.4037ZM11.0689 15.1903C10.9745 15.1903 10.881 15.1725 10.7932 15.1378C8.85919 14.3728 7.21669 12.6675 6.50653 10.6875C6.47192 10.5945 6.45612 10.4955 6.46003 10.3963C6.46395 10.2972 6.48751 10.1998 6.52935 10.1098C6.57118 10.0198 6.63046 9.93898 6.70375 9.87206C6.77704 9.80515 6.86289 9.75344 6.95631 9.71994C7.04973 9.68645 7.14887 9.67182 7.24798 9.67692C7.34709 9.68202 7.44421 9.70674 7.5337 9.74964C7.62319 9.79255 7.70327 9.85279 7.76931 9.92688C7.83535 10.001 7.88602 10.0874 7.91841 10.1812C8.59809 12.0768 10.1342 13.2642 11.345 13.7437C11.5073 13.8079 11.6423 13.9267 11.7264 14.0797C11.8106 14.2327 11.8387 14.4102 11.806 14.5817C11.7733 14.7533 11.6818 14.908 11.5472 15.0192C11.4126 15.1305 11.2435 15.1913 11.0689 15.1912V15.1903Z" fill="#373737"/>
</svg>
