<svg width="24" height="24" viewBox="0 0 24 24" fill="none" xmlns="http://www.w3.org/2000/svg">
<g clip-path="url(#clip0_1870_8205)">
<path d="M24.0008 11.9998C24.0008 11.2245 23.3319 9.80794 21.8628 8.53107C21.0243 7.80982 20.0686 7.2372 19.0372 6.83794C19.0029 6.82511 18.965 6.82549 18.931 6.839C18.8969 6.85251 18.8691 6.8782 18.8529 6.91107C18.8459 6.92466 18.8389 6.93778 18.8309 6.95138L18.3814 7.69669C17.6233 9.00573 17.2244 10.4918 17.2249 12.0045C17.2255 13.5172 17.6256 15.0029 18.3847 16.3114L18.3954 16.3297L18.8051 17.0797C18.8269 17.1195 18.8623 17.1501 18.9049 17.1658C18.9475 17.1815 18.9943 17.1812 19.0367 17.165C22.4834 15.8164 24.0008 13.1947 24.0008 11.9998ZM19.5983 11.9933C19.4429 12.0136 19.2851 11.9847 19.147 11.9108C19.0089 11.8369 18.8974 11.7215 18.8282 11.581C18.759 11.4405 18.7355 11.2818 18.761 11.1273C18.7866 10.9727 18.8599 10.83 18.9707 10.7193C19.0814 10.6085 19.2241 10.5352 19.3787 10.5096C19.5332 10.4841 19.6919 10.5076 19.8324 10.5768C19.973 10.646 20.0883 10.7575 20.1622 10.8956C20.2361 11.0337 20.265 11.1915 20.2447 11.3468C20.2232 11.5108 20.1482 11.663 20.0313 11.7799C19.9144 11.8968 19.7622 11.9718 19.5983 11.9933Z" fill="#373737"/>
<path d="M15.725 11.9998C15.7243 10.2216 16.1947 8.47484 17.0881 6.93732L17.0937 6.92747L17.3103 6.56794C17.3259 6.54233 17.3352 6.51333 17.3373 6.48338C17.3394 6.45344 17.3343 6.42343 17.3224 6.39587C17.3105 6.36831 17.2922 6.34401 17.269 6.32501C17.2457 6.30601 17.2183 6.29287 17.1889 6.28669C16.5821 6.15977 15.9671 6.07534 15.3486 6.03403C15.2756 6.02932 15.2057 6.00324 15.1475 5.95903C14.2437 5.27185 12.4522 4.06997 10.6259 3.76107C10.5011 3.74039 10.3731 3.75161 10.2538 3.79369C10.1345 3.83577 10.0278 3.90734 9.94361 4.00174C9.85941 4.09614 9.80045 4.21031 9.77222 4.33362C9.744 4.45693 9.74742 4.58537 9.78217 4.707L10.28 6.44935C10.2929 6.4945 10.2885 6.54287 10.2674 6.58488C10.2464 6.62689 10.2104 6.65949 10.1665 6.67622C8.4392 7.31794 6.95138 8.49263 5.86623 9.38794C5.79982 9.4423 5.71677 9.47223 5.63094 9.47275C5.54512 9.47326 5.46172 9.44432 5.39467 9.39075C5.24717 9.27357 5.09576 9.1581 4.94045 9.04435C3.08232 7.68732 0.899354 7.50872 0.807479 7.50216C0.690829 7.49335 0.573735 7.51194 0.465555 7.55646C0.357375 7.60098 0.261109 7.67019 0.184451 7.75855C0.107792 7.84692 0.0528669 7.95199 0.0240645 8.06537C-0.00473787 8.17875 -0.00661864 8.2973 0.0185725 8.41153C0.03826 8.502 0.449354 10.3189 1.50451 11.7683C1.55201 11.8332 1.57761 11.9116 1.57761 11.9921C1.57761 12.0726 1.55201 12.1509 1.50451 12.2159C0.449354 13.6648 0.03826 15.4822 0.0185725 15.5726C-0.00661864 15.6869 -0.00473787 15.8054 0.0240645 15.9188C0.0528669 16.0322 0.107792 16.1372 0.184451 16.2256C0.261109 16.314 0.357375 16.3832 0.465555 16.4277C0.573735 16.4722 0.690829 16.4908 0.807479 16.482C0.901229 16.4754 3.08232 16.2945 4.9381 14.9408C5.08967 14.8295 5.23764 14.7167 5.38201 14.6023C5.44912 14.5488 5.53255 14.52 5.61837 14.5206C5.70419 14.5212 5.78721 14.5512 5.85357 14.6056C6.94342 15.5051 8.43404 16.6812 10.1661 17.3243C10.2099 17.3411 10.2458 17.3736 10.2668 17.4155C10.2878 17.4574 10.2923 17.5057 10.2795 17.5508L9.77982 19.2936C9.74507 19.4152 9.74165 19.5436 9.76988 19.667C9.79811 19.7903 9.85707 19.9044 9.94127 19.9988C10.0255 20.0932 10.1322 20.1648 10.2515 20.2069C10.3708 20.249 10.4988 20.2602 10.6236 20.2395C11.4279 20.1036 13.0554 19.6367 15.1259 18.0443C15.1851 17.9992 15.2561 17.9723 15.3303 17.967C15.9481 17.9265 16.5624 17.8435 17.1687 17.7186C17.1974 17.7126 17.2242 17.6999 17.247 17.6817C17.2699 17.6635 17.2882 17.6402 17.3005 17.6136C17.3127 17.5871 17.3186 17.558 17.3176 17.5288C17.3166 17.4996 17.3088 17.471 17.2948 17.4453L17.0834 17.0567C16.1926 15.5204 15.7239 13.7757 15.725 11.9998Z" fill="#373737"/>
</g>
<defs>
<clipPath id="clip0_1870_8205">
<rect width="24" height="24" fill="white"/>
</clipPath>
</defs>
</svg>
