<svg width="24" height="24" viewBox="0 0 24 24" fill="none" xmlns="http://www.w3.org/2000/svg">
<path d="M18.4795 9.26062C17.8988 7.71887 17.0521 6.29096 15.9778 5.04187C14.1187 2.88984 11.6742 1.5 9.75 1.5C9.63558 1.50009 9.5227 1.52635 9.42 1.57678C9.3173 1.6272 9.22749 1.70046 9.15746 1.79094C9.08743 1.88142 9.03903 1.98673 9.01596 2.09879C8.99289 2.21086 8.99577 2.32672 9.02437 2.4375C9.67453 4.92188 8.32688 6.98766 6.90047 9.17438C5.71875 10.9856 4.5 12.8564 4.5 15C4.5 19.1353 7.86469 22.5 12 22.5C16.1353 22.5 19.5 19.1353 19.5 15C19.5 12.9703 19.1569 11.0395 18.4795 9.26062ZM13.5155 19.6261C13.0312 20.1417 12.4242 20.25 12 20.25C11.5758 20.25 10.9688 20.1417 10.4845 19.6261C10.0003 19.1105 9.75 18.2925 9.75 17.25C9.75 16.0716 10.1634 15.1744 10.5628 14.3072C10.7948 13.8038 11.0316 13.2914 11.1722 12.743C11.1871 12.6833 11.2165 12.6282 11.2577 12.5826C11.2989 12.537 11.3508 12.5022 11.4086 12.4813C11.4664 12.4604 11.5285 12.4541 11.5894 12.4628C11.6503 12.4716 11.7081 12.4952 11.7577 12.5316C12.1864 12.8633 12.5676 13.2522 12.8906 13.6875C13.7423 14.8125 14.25 16.1447 14.25 17.25C14.25 18.2925 13.9959 19.1142 13.5155 19.6261Z" fill="#373737"/>
</svg>
