<svg width="24" height="24" viewBox="0 0 24 24" fill="none" xmlns="http://www.w3.org/2000/svg">
<g clip-path="url(#clip0_1870_8195)">
<path d="M11.9988 14.2501C13.2415 14.2501 14.2488 13.2428 14.2488 12.0001C14.2488 10.7575 13.2415 9.75013 11.9988 9.75013C10.7562 9.75013 9.74884 10.7575 9.74884 12.0001C9.74884 13.2428 10.7562 14.2501 11.9988 14.2501Z" fill="#373737"/>
<path d="M22.3081 14.2459C22.7471 13.8139 23.0505 13.2632 23.181 12.6613C23.3115 12.0593 23.2634 11.4324 23.0427 10.8574C22.8221 10.2823 22.4383 9.78425 21.9386 9.42419C21.4389 9.06414 20.8449 8.85778 20.2296 8.83045C20.1832 8.82842 20.1384 8.81319 20.1003 8.78653C20.0623 8.75987 20.0327 8.72291 20.0149 8.67998C19.9974 8.63693 19.9924 8.58976 20.0007 8.544C20.009 8.49825 20.0302 8.45582 20.0618 8.4217C20.4738 7.96625 20.745 7.40125 20.8428 6.79496C20.9405 6.18868 20.8606 5.56706 20.6127 5.00522C20.3647 4.44338 19.9594 3.96536 19.4457 3.62892C18.9319 3.29248 18.3317 3.11202 17.7176 3.10935H17.7059C16.9178 3.10922 16.1584 3.4048 15.5778 3.93763C15.5436 3.96932 15.5011 3.99056 15.4552 3.99887C15.4094 4.00717 15.3621 4.00219 15.319 3.98451C15.2761 3.9667 15.2391 3.93707 15.2124 3.89906C15.1857 3.86105 15.1703 3.81623 15.1681 3.76982C15.1322 2.95327 14.7827 2.18205 14.1922 1.61691C13.6017 1.05177 12.8159 0.736328 11.9986 0.736328C11.1813 0.736328 10.3955 1.05177 9.80501 1.61691C9.21454 2.18205 8.86497 2.95327 8.82916 3.76982C8.82714 3.81622 8.8119 3.86108 8.78524 3.89912C8.75859 3.93715 8.72162 3.96678 8.67869 3.98451C8.63558 4.00219 8.58831 4.00717 8.54247 3.99887C8.49662 3.99056 8.4541 3.96932 8.41994 3.93763C7.83902 3.40394 7.07879 3.10798 6.28994 3.10841H6.28009C5.66665 3.11271 5.06751 3.29416 4.55476 3.63095C4.04201 3.96774 3.6375 4.44551 3.38989 5.00678C3.14229 5.56805 3.06214 6.18892 3.15908 6.79467C3.25603 7.40042 3.52594 7.96526 3.93634 8.42123C3.96794 8.45535 3.98913 8.49778 3.99743 8.54353C4.00574 8.58929 4.00081 8.63646 3.98322 8.67951C3.96549 8.72244 3.93586 8.75941 3.89783 8.78606C3.85979 8.81272 3.81493 8.82796 3.76853 8.82998C2.95699 8.87301 2.19288 9.2257 1.63366 9.81537C1.07443 10.405 0.762695 11.1868 0.762695 11.9994C0.762695 12.8121 1.07443 13.5938 1.63366 14.1835C2.19288 14.7732 2.95699 15.1258 3.76853 15.1689C3.81499 15.1712 3.85985 15.1866 3.89787 15.2134C3.93588 15.2402 3.96548 15.2773 3.98322 15.3203C4.00084 15.3634 4.0058 15.4107 3.99749 15.4565C3.98919 15.5023 3.96798 15.5448 3.93634 15.579C3.52307 16.0331 3.25075 16.5976 3.15257 17.2037C3.05438 17.8098 3.13456 18.4314 3.38334 18.9927C3.63212 19.5541 4.03877 20.031 4.55375 20.3653C5.06874 20.6997 5.66984 20.8771 6.28384 20.8759H6.29556C7.08012 20.8781 7.8374 20.5882 8.41994 20.0626C8.45406 20.031 8.49649 20.0098 8.54224 20.0015C8.588 19.9932 8.63517 19.9982 8.67822 20.0158C8.72115 20.0335 8.75812 20.0631 8.78477 20.1011C8.81143 20.1392 8.82667 20.184 8.82869 20.2304C8.87172 21.042 9.22441 21.8061 9.81408 22.3653C10.4037 22.9245 11.1855 23.2363 11.9981 23.2363C12.8108 23.2363 13.5925 22.9245 14.1822 22.3653C14.7719 21.8061 15.1246 21.042 15.1676 20.2304C15.1698 20.184 15.1852 20.1392 15.2119 20.1012C15.2386 20.0632 15.2756 20.0336 15.3185 20.0158C15.3616 19.9982 15.4088 19.9932 15.4545 20.0015C15.5003 20.0098 15.5427 20.031 15.5768 20.0626C16.1585 20.589 16.9153 20.8801 17.6998 20.8792H17.7115C18.326 20.8816 18.928 20.705 19.4438 20.3708C19.9595 20.0367 20.3668 19.5596 20.6158 18.9977C20.8648 18.4359 20.9448 17.8137 20.8459 17.2071C20.747 16.6006 20.4736 16.036 20.059 15.5823C20.0274 15.5481 20.0062 15.5056 19.9979 15.4598C19.9895 15.4139 19.9945 15.3667 20.0121 15.3236C20.0299 15.2807 20.0596 15.2437 20.0976 15.217C20.1356 15.1902 20.1804 15.1749 20.2268 15.1726C21.0118 15.1337 21.7539 14.8032 22.3081 14.2459ZM11.9988 15.7501C11.2572 15.7501 10.5321 15.5302 9.91546 15.1181C9.29877 14.7061 8.81812 14.1204 8.5343 13.4352C8.25047 12.75 8.1762 11.996 8.3209 11.2685C8.46559 10.5411 8.82275 9.87293 9.34719 9.34848C9.87164 8.82404 10.5398 8.46688 11.2673 8.32219C11.9947 8.17749 12.7487 8.25176 13.4339 8.53558C14.1191 8.81941 14.7048 9.30006 15.1169 9.91674C15.5289 10.5334 15.7488 11.2585 15.7488 12.0001C15.7477 12.9944 15.3523 13.9475 14.6493 14.6505C13.9462 15.3536 12.9931 15.749 11.9988 15.7501Z" fill="#373737"/>
</g>
<defs>
<clipPath id="clip0_1870_8195">
<rect width="24" height="24" fill="white"/>
</clipPath>
</defs>
</svg>
