<svg width="24" height="24" viewBox="0 0 24 24" fill="none" xmlns="http://www.w3.org/2000/svg">
<path d="M22.6461 11.5032C21.6519 7.00837 20.1556 4.60931 17.9361 3.954C17.4695 3.81715 16.9856 3.74878 16.4994 3.75103C15.8567 3.75103 15.297 3.90759 14.705 4.07353C13.9916 4.27369 13.1811 4.50103 11.9994 4.50103C10.8176 4.50103 10.0067 4.27416 9.29186 4.074C8.69936 3.90759 8.14014 3.75103 7.49936 3.75103C6.99659 3.74929 6.49602 3.81744 6.01202 3.95353C3.80421 4.60603 2.3089 7.00416 1.30015 11.5004C0.215458 16.3388 0.749364 19.3937 2.79733 20.1024C3.07806 20.2014 3.37343 20.2524 3.67108 20.2534C5.07405 20.2534 6.19905 19.0848 6.9678 18.1281C7.8364 17.0452 8.85311 16.4959 11.9994 16.4959C14.8095 16.4959 15.9725 16.877 16.977 18.1281C17.6084 18.9146 18.2051 19.4649 18.8005 19.8113C19.5922 20.2717 20.3834 20.3738 21.1517 20.1099C22.362 19.697 23.0558 18.6052 23.2142 16.8643C23.3347 15.5293 23.1491 13.7757 22.6461 11.5032ZM9.74936 11.251H8.24936V12.751C8.24936 12.9499 8.17035 13.1407 8.02969 13.2814C7.88904 13.422 7.69828 13.501 7.49936 13.501C7.30045 13.501 7.10969 13.422 6.96903 13.2814C6.82838 13.1407 6.74936 12.9499 6.74936 12.751V11.251H5.24936C5.05045 11.251 4.85969 11.172 4.71903 11.0314C4.57838 10.8907 4.49936 10.6999 4.49936 10.501C4.49936 10.3021 4.57838 10.1114 4.71903 9.9707C4.85969 9.83005 5.05045 9.75103 5.24936 9.75103H6.74936V8.25103C6.74936 8.05212 6.82838 7.86135 6.96903 7.7207C7.10969 7.58005 7.30045 7.50103 7.49936 7.50103C7.69828 7.50103 7.88904 7.58005 8.02969 7.7207C8.17035 7.86135 8.24936 8.05212 8.24936 8.25103V9.75103H9.74936C9.94828 9.75103 10.139 9.83005 10.2797 9.9707C10.4203 10.1114 10.4994 10.3021 10.4994 10.501C10.4994 10.6999 10.4203 10.8907 10.2797 11.0314C10.139 11.172 9.94828 11.251 9.74936 11.251ZM13.6869 11.4385C13.5014 11.4385 13.3202 11.3835 13.166 11.2805C13.0118 11.1775 12.8917 11.0311 12.8207 10.8598C12.7498 10.6885 12.7312 10.5 12.7674 10.3181C12.8036 10.1363 12.8928 9.96923 13.024 9.83812C13.1551 9.70701 13.3221 9.61772 13.504 9.58154C13.6858 9.54537 13.8743 9.56394 14.0456 9.63489C14.2169 9.70585 14.3634 9.82601 14.4664 9.98018C14.5694 10.1344 14.6244 10.3156 14.6244 10.501C14.6244 10.7497 14.5256 10.9881 14.3498 11.1639C14.174 11.3398 13.9355 11.4385 13.6869 11.4385ZM15.7494 13.501C15.5638 13.501 15.3825 13.446 15.2283 13.3429C15.0741 13.2398 14.9539 13.0932 14.883 12.9218C14.8121 12.7503 14.7937 12.5617 14.8301 12.3798C14.8664 12.1978 14.9559 12.0308 15.0873 11.8998C15.2186 11.7688 15.3859 11.6797 15.5679 11.6438C15.7499 11.6079 15.9385 11.6268 16.1098 11.6981C16.281 11.7694 16.4273 11.8899 16.53 12.0444C16.6327 12.1989 16.6873 12.3804 16.6869 12.5659C16.6862 12.8141 16.5872 13.052 16.4114 13.2273C16.2357 13.4026 15.9976 13.501 15.7494 13.501ZM15.7494 9.37603C15.5639 9.37603 15.3827 9.32105 15.2285 9.21803C15.0743 9.11502 14.9542 8.9686 14.8832 8.7973C14.8123 8.62599 14.7937 8.43749 14.8299 8.25563C14.8661 8.07378 14.9553 7.90673 15.0865 7.77562C15.2176 7.64451 15.3846 7.55522 15.5665 7.51904C15.7483 7.48287 15.9368 7.50144 16.1081 7.57239C16.2794 7.64335 16.4259 7.76351 16.5289 7.91768C16.6319 8.07185 16.6869 8.25311 16.6869 8.43853C16.6869 8.68717 16.5881 8.92563 16.4123 9.10144C16.2365 9.27726 15.998 9.37603 15.7494 9.37603ZM17.8119 11.4385C17.6264 11.4385 17.4452 11.3835 17.291 11.2805C17.1368 11.1775 17.0167 11.0311 16.9457 10.8598C16.8748 10.6885 16.8562 10.5 16.8924 10.3181C16.9286 10.1363 17.0178 9.96923 17.149 9.83812C17.2801 9.70701 17.4471 9.61772 17.629 9.58154C17.8108 9.54537 17.9993 9.56394 18.1706 9.63489C18.3419 9.70585 18.4884 9.82601 18.5914 9.98018C18.6944 10.1344 18.7494 10.3156 18.7494 10.501C18.7494 10.7497 18.6506 10.9881 18.4748 11.1639C18.299 11.3398 18.0605 11.4385 17.8119 11.4385Z" fill="#373737"/>
</svg>
