<svg width="24" height="24" viewBox="0 0 24 24" fill="none" xmlns="http://www.w3.org/2000/svg">
<path d="M13.132 11.3808L11.9081 10.1564C11.6278 9.876 11.2478 9.71799 10.8513 9.71694C10.4548 9.71589 10.074 9.87187 9.79219 10.1508L1.28297 18.0038C0.973131 18.2958 0.769694 18.668 0.750944 19.0847C0.741922 19.2914 0.775603 19.4977 0.849882 19.6908C0.924162 19.8838 1.03745 20.0595 1.18266 20.2069L3.01079 22.0552C3.01176 22.0564 3.01286 22.0575 3.01407 22.0584C3.29657 22.34 3.6788 22.4987 4.07766 22.5H4.13297C4.54969 22.4845 4.92282 22.2891 5.21907 21.9764L13.1269 13.5061C13.2671 13.3671 13.3785 13.2017 13.4547 13.0196C13.5309 12.8374 13.5703 12.642 13.5708 12.4445C13.5713 12.2471 13.5328 12.0514 13.4575 11.8689C13.3822 11.6864 13.2716 11.5205 13.132 11.3808Z" fill="#373737"/>
<path d="M22.9683 8.90625L22.9538 8.89172L21.3473 7.30172C21.2533 7.20794 21.1415 7.13372 21.0186 7.08335C20.8956 7.03299 20.7639 7.00747 20.6311 7.00828C20.4158 7.00848 20.2061 7.07638 20.0316 7.20235C20.0316 7.18219 20.0344 7.1625 20.0358 7.14516C20.0569 6.84047 20.0897 6.38016 19.792 5.96297C19.4381 5.48597 19.0496 5.03569 18.6295 4.61578C18.6284 4.61442 18.6272 4.61316 18.6258 4.61203C18.0014 3.99703 16.6425 2.83875 14.5608 1.98985C13.7713 1.66583 12.926 1.49942 12.0727 1.5C10.5933 1.5 9.46829 2.1675 9.03751 2.56313C8.79358 2.79611 8.57112 3.05057 8.37282 3.32344C8.27808 3.45421 8.22808 3.61206 8.23024 3.77352C8.23241 3.93499 8.28663 4.09144 8.38484 4.21962C8.48306 4.3478 8.62002 4.44085 8.77536 4.48495C8.9307 4.52905 9.09613 4.52183 9.24704 4.46438C9.3785 4.41523 9.5128 4.37406 9.64922 4.3411C9.93333 4.28101 10.2247 4.26285 10.5141 4.28719C11.1323 4.33828 11.8636 4.64531 12.187 4.90078C12.7355 5.34188 12.9994 5.93625 13.043 6.82688C13.0514 7.00594 12.6811 7.67719 12.1055 8.44313C11.9958 8.58767 11.9423 8.76707 11.9548 8.94807C11.9673 9.12907 12.045 9.2994 12.1734 9.4275L13.7864 11.0405C13.9219 11.1763 14.1044 11.2551 14.2962 11.2605C14.4881 11.2659 14.6747 11.1975 14.8177 11.0695C15.2738 10.6622 15.9684 10.0481 16.2113 9.89766C16.5717 9.67594 16.8295 9.63328 16.9003 9.62578C17.084 9.60777 17.2688 9.64672 17.4295 9.73735C17.4303 9.74537 17.4295 9.75347 17.427 9.76114C17.4245 9.76881 17.4204 9.77587 17.415 9.78188L17.3297 9.86297L17.3156 9.8761C17.2214 9.97001 17.1466 10.0816 17.0957 10.2046C17.0447 10.3275 17.0186 10.4593 17.0188 10.5924C17.0191 10.7254 17.0456 10.8571 17.0969 10.9799C17.1483 11.1027 17.2234 11.2141 17.318 11.3077L18.9239 12.8972C19.018 12.9909 19.1298 13.0651 19.2527 13.1153C19.3757 13.1656 19.5073 13.1911 19.6402 13.1902C19.9069 13.1906 20.1631 13.0862 20.3536 12.8995L22.9552 10.3298C22.9641 10.3209 22.973 10.3116 22.9814 10.3022C23.1559 10.1109 23.2516 9.86059 23.2492 9.60164C23.2467 9.34269 23.1464 9.09425 22.9683 8.90625Z" fill="#373737"/>
</svg>
