<svg width="24" height="24" viewBox="0 0 24 24" fill="none" xmlns="http://www.w3.org/2000/svg">
<path d="M19.5844 21C19.4855 21.0002 19.3875 20.9808 19.2962 20.9428C19.2049 20.9048 19.122 20.8491 19.0524 20.7788L1.9036 3.52786C1.76337 3.38676 1.68494 3.19573 1.68555 2.99679C1.68617 2.79786 1.76578 2.60731 1.90689 2.46708C2.04799 2.32685 2.23902 2.24841 2.43796 2.24903C2.63689 2.24964 2.82743 2.32926 2.96767 2.47036L20.1159 19.7204C20.2207 19.8254 20.292 19.9591 20.3207 20.1045C20.3495 20.25 20.3345 20.4008 20.2776 20.5378C20.2207 20.6747 20.1245 20.7917 20.0011 20.874C19.8777 20.9563 19.7327 21.0002 19.5844 21Z" fill="#373737"/>
<path d="M17.1038 3.75005C14.8495 3.75005 13.3538 5.13521 12.5606 6.14068C11.7694 5.1338 10.2717 3.75005 8.01751 3.75005C7.52531 3.74971 7.03573 3.82157 6.56439 3.96333L7.87314 5.25005C8.91657 5.25005 10.0205 5.67193 10.8703 6.50021C11.2735 6.89291 11.617 7.34252 11.8899 7.83474C11.9522 7.95905 12.048 8.06356 12.1664 8.1366C12.2847 8.20963 12.4211 8.24831 12.5602 8.24831C12.6993 8.24831 12.8356 8.20963 12.954 8.1366C13.0724 8.06356 13.1681 7.95905 13.2305 7.83474C13.5035 7.34179 13.8473 6.89154 14.2509 6.49833C15.1008 5.67193 16.0603 5.25005 17.1038 5.25005C19.1264 5.25005 20.7891 6.95302 20.8102 9.04692C20.8355 11.5636 19.7438 13.7133 18.1205 15.5869L19.1813 16.6543C19.3219 16.493 19.4485 16.343 19.5628 16.2043C21.4378 13.9191 22.3355 11.573 22.3102 9.03239C22.2811 6.11818 19.9453 3.75005 17.1038 3.75005Z" fill="#373737"/>
<path d="M12.5606 20.25C8.45345 17.4615 4.26376 13.95 4.31064 9.04692C4.31363 8.75658 4.34884 8.46747 4.41564 8.18489L3.23251 6.99099C2.96088 7.63669 2.81759 8.32911 2.81064 9.02958C2.78532 11.5711 3.68392 13.9172 5.55798 16.2015C6.43782 17.2735 8.03298 18.9882 11.7169 21.489C11.9653 21.6592 12.2595 21.7503 12.5606 21.7503C12.8618 21.7503 13.156 21.6592 13.4044 21.489C14.3583 20.8416 15.1716 20.2468 15.8691 19.7025L14.8069 18.6333C14.0724 19.2001 13.3149 19.7368 12.5606 20.25Z" fill="#373737"/>
</svg>
