<svg width="24" height="24" viewBox="0 0 24 24" fill="none" xmlns="http://www.w3.org/2000/svg">
<path d="M12.375 22.5001C9.49077 22.5001 6.72467 21.3544 4.68521 19.3149C2.64576 17.2754 1.5 14.5093 1.5 11.6251C1.5 7.21887 4.03125 3.26824 7.95047 1.56246C8.0886 1.50226 8.24165 1.48506 8.3897 1.5131C8.53774 1.54114 8.6739 1.61313 8.78045 1.71967C8.88699 1.82621 8.95897 1.96238 8.98701 2.11042C9.01506 2.25846 8.99786 2.41152 8.93766 2.54965C8.48766 3.58277 8.25 4.90605 8.25 6.37512C8.25 11.5445 12.4556 15.7501 17.625 15.7501C19.0941 15.7501 20.4173 15.5125 21.4505 15.0625C21.5886 15.0023 21.7417 14.9851 21.8897 15.0131C22.0377 15.0411 22.1739 15.1131 22.2804 15.2197C22.387 15.3262 22.459 15.4624 22.487 15.6104C22.5151 15.7585 22.4979 15.9115 22.4377 16.0496C20.7319 19.9689 16.7813 22.5001 12.375 22.5001Z" fill="#373737"/>
</svg>
