<svg width="24" height="24" viewBox="0 0 24 24" fill="none" xmlns="http://www.w3.org/2000/svg">
<path d="M12.1364 2.24993C6.65292 2.17587 2.17636 6.65243 2.25042 12.1359C2.32354 17.3948 6.60557 21.6768 11.8645 21.7499C17.3489 21.8249 21.8245 17.3484 21.7495 11.8649C21.6773 6.60509 17.3953 2.32305 12.1364 2.24993ZM20.1098 11.2462L15.7467 11.2415C15.7253 11.2415 15.7046 11.2341 15.688 11.2208C15.6714 11.2074 15.6598 11.1887 15.6553 11.1679C15.4688 10.3539 15.0161 9.62529 14.369 9.09743C14.3525 9.0841 14.3411 9.06558 14.3365 9.04489C14.3319 9.02421 14.3344 9.00258 14.3437 8.98352L16.2806 5.07274C16.2864 5.06089 16.2946 5.05039 16.3047 5.04193C16.3148 5.03347 16.3266 5.02725 16.3393 5.02366C16.352 5.02008 16.3654 5.01922 16.3784 5.02113C16.3915 5.02305 16.404 5.02769 16.4151 5.03477C17.466 5.70163 18.3525 6.59734 19.0085 7.65499C19.6645 8.71264 20.0731 9.90487 20.2035 11.1426C20.2049 11.1557 20.2035 11.169 20.1994 11.1815C20.1954 11.194 20.1887 11.2056 20.1798 11.2153C20.171 11.2251 20.1602 11.2329 20.1481 11.2382C20.136 11.2435 20.123 11.2463 20.1098 11.2462ZM9.75979 12.2052C9.71759 11.7446 9.81836 11.2822 10.0484 10.8809C10.2784 10.4797 10.6265 10.159 11.0453 9.9627C11.4641 9.76637 11.9333 9.70387 12.3888 9.78372C12.8444 9.86357 13.2643 10.0819 13.5914 10.409C13.9185 10.736 14.1368 11.1559 14.2166 11.6115C14.2965 12.0671 14.234 12.5362 14.0376 12.955C13.8413 13.3738 13.5207 13.7219 13.1194 13.952C12.7181 14.182 12.2557 14.2828 11.7951 14.2406C11.2715 14.1926 10.7812 13.9627 10.4094 13.5909C10.0376 13.2191 9.80777 12.7289 9.75979 12.2052ZM7.71839 5.07274L9.65667 8.98352C9.66594 9.00258 9.66849 9.02421 9.66389 9.04489C9.6593 9.06558 9.64783 9.0841 9.63136 9.09743C8.98388 9.62515 8.53092 10.3538 8.34417 11.1679C8.3395 11.1891 8.3276 11.2081 8.31049 11.2215C8.29339 11.2349 8.27215 11.242 8.25042 11.2415L3.88729 11.2462C3.87411 11.2463 3.86105 11.2435 3.84899 11.2382C3.83692 11.2329 3.82611 11.2251 3.81726 11.2153C3.80841 11.2056 3.80173 11.194 3.79764 11.1815C3.79355 11.169 3.79216 11.1557 3.79354 11.1426C3.92403 9.90487 4.33254 8.71264 4.98856 7.65499C5.64457 6.59734 6.53113 5.70163 7.58198 5.03477C7.59318 5.02737 7.60583 5.02245 7.61909 5.02036C7.63235 5.01827 7.64591 5.01905 7.65884 5.02265C7.67178 5.02625 7.68378 5.03258 7.69406 5.04123C7.70433 5.04987 7.71263 5.06062 7.71839 5.07274ZM7.70104 18.9168L10.3406 15.4438C10.3535 15.4269 10.3719 15.4149 10.3926 15.4098C10.4133 15.4046 10.4351 15.4067 10.4545 15.4157C10.9404 15.6363 11.4678 15.7504 12.0014 15.7504C12.5349 15.7504 13.0624 15.6363 13.5482 15.4157C13.5676 15.4067 13.5894 15.4046 13.6101 15.4098C13.6308 15.4149 13.6492 15.4269 13.6621 15.4438L16.3017 18.9168C16.3096 18.9272 16.3153 18.9392 16.3184 18.952C16.3215 18.9647 16.3218 18.978 16.3194 18.9909C16.317 19.0038 16.312 19.016 16.3046 19.0268C16.2971 19.0377 16.2875 19.0468 16.2764 19.0537C14.988 19.8361 13.5096 20.2499 12.0023 20.2499C10.495 20.2499 9.01656 19.8361 7.72823 19.0537C7.71691 19.047 7.70713 19.0379 7.69952 19.0272C7.69192 19.0164 7.68666 19.0042 7.6841 18.9913C7.68153 18.9784 7.68172 18.9651 7.68464 18.9523C7.68756 18.9394 7.69315 18.9273 7.70104 18.9168Z" fill="#373737"/>
</svg>
