<svg width="24" height="24" viewBox="0 0 24 24" fill="none" xmlns="http://www.w3.org/2000/svg">
<path d="M22.9872 8.56637C22.7271 7.94809 22.2949 7.5023 21.7371 7.27777L21.7296 7.27496C21.4757 7.17552 21.2054 7.12463 20.9327 7.12496H20.9027C19.6258 7.14418 18.3222 8.22934 17.6594 9.82543C17.1733 10.9926 17.1175 12.2479 17.5104 13.1836C17.77 13.8023 18.2032 14.2481 18.7633 14.4726L18.7694 14.475C19.0233 14.5743 19.2936 14.6252 19.5663 14.625C20.8554 14.625 22.1725 13.5398 22.8475 11.9226C23.3275 10.7568 23.3805 9.50246 22.9872 8.56637Z" fill="#373737"/>
<path d="M17.8854 15.4504C17.1489 15.0079 16.4529 14.5893 15.9982 13.8375C14.7438 11.7562 13.9863 10.5 12.0002 10.5C10.0141 10.5 9.25473 11.7562 7.99754 13.8375C7.54191 14.5903 6.84442 15.0093 6.10567 15.4537C5.25863 15.9628 4.38348 16.4887 4.00567 17.5237C3.85879 17.8968 3.7848 18.2946 3.7877 18.6956C3.7877 20.3807 5.1002 21.7518 6.7127 21.7518C7.54473 21.7518 8.4302 21.4636 9.36723 21.1584C10.2682 20.865 11.1996 20.5617 12.0049 20.5617C12.8102 20.5617 13.7393 20.865 14.6369 21.1584C15.5721 21.4617 16.4533 21.75 17.2877 21.75C18.8979 21.75 20.208 20.3789 20.208 18.6937C20.2093 18.2924 20.1338 17.8946 19.9854 17.5218C19.6075 16.4859 18.7319 15.9595 17.8854 15.4504Z" fill="#373737"/>
<path d="M7.03145 8.8523C7.58926 9.55215 8.29707 9.93746 9.02457 9.93746C9.12389 9.93746 9.22306 9.93009 9.32129 9.91543C10.8386 9.6923 11.7841 7.84074 11.4738 5.69668C11.3439 4.79527 10.9971 3.95574 10.5002 3.33324C9.94332 2.6348 9.23457 2.24996 8.50754 2.24996C8.40823 2.24996 8.30905 2.25733 8.21082 2.27199C6.69348 2.49512 5.74801 4.34668 6.05832 6.49074C6.1877 7.39074 6.53457 8.22934 7.03145 8.8523Z" fill="#373737"/>
<path d="M14.6796 9.91543C14.7778 9.93009 14.877 9.93746 14.9763 9.93746C15.7043 9.93746 16.4116 9.55215 16.9694 8.8523C17.4658 8.22934 17.8108 7.39074 17.9421 6.4898C18.2524 4.34668 17.3069 2.49512 15.7896 2.27105C15.6913 2.25639 15.5922 2.24903 15.4929 2.24902C14.7658 2.24996 14.0571 2.6348 13.5002 3.33324C13.0033 3.95574 12.6564 4.79527 12.5271 5.69762C12.2168 7.84074 13.1622 9.6923 14.6796 9.91543Z" fill="#373737"/>
<path d="M5.23098 14.475L5.23754 14.4726C5.79676 14.2481 6.22941 13.8028 6.48863 13.1845C6.88145 12.247 6.82613 10.9931 6.34098 9.8259C5.66926 8.21059 4.35254 7.12496 3.06488 7.12496C2.7922 7.12457 2.52188 7.17545 2.26801 7.27496L2.26145 7.2773C1.70363 7.49996 1.27098 7.94715 1.01176 8.56543C0.618946 9.50293 0.674259 10.7568 1.15941 11.924C1.83113 13.5393 3.14785 14.625 4.43551 14.625C4.70772 14.6252 4.97754 14.5743 5.23098 14.475Z" fill="#373737"/>
</svg>
