<svg width="24" height="24" viewBox="0 0 24 24" fill="none" xmlns="http://www.w3.org/2000/svg">
<path d="M20.7099 3.17953C17.9733 2.09672 14.873 1.5 11.979 1.5C8.99958 1.5 5.89458 2.08734 3.23396 3.15281C2.2824 3.53859 2.1188 4.21875 2.28286 4.72594L2.47365 5.20312C2.51108 5.29657 2.56693 5.38153 2.63789 5.45293C2.70885 5.52434 2.79346 5.58072 2.88667 5.61873C2.97989 5.65674 3.0798 5.6756 3.18045 5.67418C3.28111 5.67276 3.38045 5.65109 3.47255 5.61047C3.9788 5.38734 4.59427 5.11641 4.73818 5.05828C6.80115 4.20188 9.31412 3.75 11.9996 3.75C14.6935 3.75 17.0663 4.18313 19.254 5.07422C19.4611 5.15859 19.9515 5.37516 20.4807 5.61141C20.5726 5.65246 20.6718 5.67459 20.7725 5.67648C20.8731 5.67837 20.9731 5.65998 21.0665 5.62241C21.1599 5.58483 21.2448 5.52884 21.316 5.45778C21.3873 5.38671 21.4436 5.30202 21.4815 5.20875L21.6558 4.78125L21.6718 4.73906C21.8335 4.26047 21.6783 3.56484 20.7099 3.17953Z" fill="#373737"/>
<path d="M19.1799 6.60281C17.0466 5.74359 14.4221 5.25 11.979 5.25C9.51367 5.25162 7.0701 5.7108 4.7724 6.60422C4.74755 6.61406 4.67583 6.64547 4.5713 6.69234C4.48093 6.73285 4.39947 6.79085 4.33163 6.863C4.26379 6.93515 4.21092 7.02002 4.17605 7.11272C4.14119 7.20542 4.12503 7.3041 4.1285 7.40307C4.13198 7.50205 4.15502 7.59935 4.1963 7.68937C4.3838 8.09766 4.63787 8.65406 4.92286 9.27797C6.46552 12.6562 9.33755 18.9375 10.6524 21.6562C10.7742 21.9099 10.9654 22.1238 11.2039 22.2731C11.4423 22.4225 11.7182 22.5011 11.9996 22.5C12.2814 22.5011 12.5578 22.4221 12.7964 22.2723C13.0351 22.1224 13.2263 21.9078 13.3477 21.6534L19.7865 7.69875C19.829 7.60747 19.8527 7.50853 19.8561 7.40786C19.8595 7.3072 19.8424 7.20689 19.806 7.11297C19.7697 7.01905 19.7147 6.93346 19.6444 6.86134C19.574 6.78922 19.4899 6.73205 19.3969 6.69328C19.291 6.64875 19.2165 6.61781 19.186 6.60563L19.1799 6.60281ZM9.09708 10.4967C8.79273 10.5166 8.48957 10.4432 8.228 10.2863C7.96644 10.1294 7.75891 9.89656 7.63308 9.61873C7.50726 9.3409 7.46911 9.03131 7.52374 8.73125C7.57836 8.43118 7.72316 8.1549 7.93882 7.93924C8.15449 7.72357 8.43077 7.57878 8.73083 7.52415C9.0309 7.46953 9.34048 7.50767 9.61831 7.6335C9.89614 7.75933 10.129 7.96686 10.2859 8.22842C10.4427 8.48998 10.5161 8.79315 10.4963 9.0975C10.4726 9.46081 10.3176 9.80311 10.0601 10.0606C9.80269 10.318 9.4604 10.473 9.09708 10.4967ZM12.0971 16.4967C11.7927 16.5166 11.4896 16.4432 11.228 16.2863C10.9664 16.1294 10.7589 15.8966 10.6331 15.6187C10.5073 15.3409 10.4691 15.0313 10.5237 14.7312C10.5784 14.4312 10.7232 14.1549 10.9388 13.9392C11.1545 13.7236 11.4308 13.5788 11.7308 13.5242C12.0309 13.4695 12.3405 13.5077 12.6183 13.6335C12.8961 13.7593 13.129 13.9669 13.2859 14.2284C13.4427 14.49 13.5161 14.7931 13.4963 15.0975C13.4726 15.4608 13.3176 15.8031 13.0601 16.0606C12.8027 16.318 12.4604 16.473 12.0971 16.4967ZM15.0971 11.2467C14.7927 11.2666 14.4896 11.1932 14.228 11.0363C13.9664 10.8794 13.7589 10.6466 13.6331 10.3687C13.5073 10.0909 13.4691 9.78131 13.5237 9.48125C13.5784 9.18118 13.7232 8.9049 13.9388 8.68924C14.1545 8.47357 14.4308 8.32878 14.7308 8.27415C15.0309 8.21953 15.3405 8.25767 15.6183 8.3835C15.8961 8.50933 16.129 8.71686 16.2859 8.97842C16.4427 9.23998 16.5161 9.54315 16.4963 9.8475C16.4726 10.2108 16.3176 10.5531 16.0601 10.8106C15.8027 11.068 15.4604 11.223 15.0971 11.2467Z" fill="#373737"/>
</svg>
