<svg width="24" height="24" viewBox="0 0 24 24" fill="none" xmlns="http://www.w3.org/2000/svg">
<path fill-rule="evenodd" clip-rule="evenodd" d="M15.0865 3.03408C13.8739 2.51519 12.5685 2.24843 11.2495 2.25001C5.86678 2.25026 1.5 6.6172 1.5 12C1.5 17.383 5.86704 21.75 11.25 21.75H11.2501C13.2665 21.7499 15.2334 21.1248 16.8799 19.9608C18.5265 18.7968 19.7719 17.1512 20.4447 15.2502C20.5829 14.8598 20.3784 14.4312 19.9879 14.293C19.5974 14.1548 19.1688 14.3593 19.0306 14.7498C18.4613 16.3584 17.4075 17.751 16.0141 18.736C14.6207 19.7209 12.9564 20.2499 11.25 20.25L11.2496 3.75001C11.2497 3.75001 11.2499 3.75001 11.25 3.75001H11.2505L11.2509 3.75001C12.3665 3.74862 13.4707 3.97423 14.4963 4.41312C15.5163 4.84956 16.4373 5.48783 17.2039 6.28945L17.6719 6.83385L15.2859 9.21985C14.8134 9.69235 15.1481 10.5 15.8165 10.5H21C21.1989 10.5 21.3896 10.421 21.5303 10.2803C21.6709 10.1397 21.75 9.94892 21.75 9.75001V4.56657C21.75 3.89813 20.9423 3.56251 20.4698 4.03595L18.7356 5.77017L18.3163 5.28244L18.3032 5.26863C17.3936 4.3133 16.2992 3.55303 15.0865 3.03408ZM11.2496 3.75001L11.25 20.25C6.69544 20.25 3 16.5545 3 12C3 7.44562 6.69523 3.75024 11.2496 3.75001Z" fill="#373737"/>
</svg>
