<svg width="24" height="24" viewBox="0 0 24 24" fill="none" xmlns="http://www.w3.org/2000/svg">
<path d="M16.7607 10.4972C17.2535 10.4986 17.7417 10.4021 18.1969 10.2135C18.6522 10.0249 19.0655 9.74789 19.4129 9.39845L23.0223 5.79142C23.3078 5.50595 23.334 5.04142 23.0621 4.74189C22.9939 4.66663 22.9111 4.60603 22.8187 4.56376C22.7263 4.52148 22.6263 4.49842 22.5247 4.49596C22.4232 4.49351 22.3222 4.51171 22.2278 4.54948C22.1335 4.58724 22.0479 4.64377 21.9761 4.71564L18.759 7.93032C18.651 8.03821 18.5046 8.09881 18.3519 8.09881C18.1992 8.09881 18.0528 8.03821 17.9448 7.93032C17.7203 7.70626 17.7325 7.32751 17.9565 7.10345L21.1595 3.90048C21.2313 3.82868 21.2878 3.74305 21.3255 3.64877C21.3632 3.5545 21.3814 3.45355 21.3789 3.35204C21.3765 3.25054 21.3534 3.15058 21.3112 3.05824C21.269 2.96591 21.2084 2.8831 21.1332 2.81485C20.9975 2.69174 20.8205 2.624 20.6373 2.62501C20.4296 2.62515 20.2305 2.70777 20.0837 2.8547L16.8836 6.05439C16.7755 6.16227 16.6291 6.22287 16.4764 6.22287C16.3238 6.22287 16.1774 6.16227 16.0693 6.05439C15.8453 5.83032 15.857 5.45157 16.0811 5.22751L19.284 2.02548C19.3558 1.95368 19.4123 1.86805 19.45 1.77377C19.4877 1.6795 19.5059 1.57855 19.5035 1.47704C19.501 1.37554 19.478 1.27558 19.4357 1.18324C19.3935 1.09091 19.333 1.0081 19.2578 0.939855C19.122 0.816743 18.9451 0.749003 18.7618 0.750011C18.5542 0.750257 18.3551 0.832859 18.2082 0.979699L14.6012 4.58673C14.2517 4.93425 13.9747 5.34764 13.7861 5.80298C13.5975 6.25831 13.5011 6.74654 13.5025 7.23939V7.62517C13.5025 7.7238 13.4832 7.82148 13.4454 7.91261C13.4077 8.00374 13.3524 8.08654 13.2826 8.15626L11.6134 9.82595C11.596 9.84338 11.5753 9.85721 11.5525 9.86665C11.5298 9.87608 11.5054 9.88094 11.4807 9.88094C11.4561 9.88094 11.4317 9.87608 11.4089 9.86665C11.3862 9.85721 11.3655 9.84338 11.3481 9.82595L3.22559 1.70298C3.0854 1.56263 2.89532 1.48354 2.69695 1.48301C2.49858 1.48248 2.30808 1.56057 2.16715 1.70017C1.45699 2.40376 1.07777 3.39704 1.07777 4.5722C1.07309 6.51282 2.09309 8.74407 3.7398 10.3884L7.74527 14.3939C8.31457 14.9621 9.08598 15.2812 9.89027 15.2813C10.1467 15.2814 10.402 15.2486 10.6501 15.1838C10.7124 15.1674 10.7765 15.1591 10.8409 15.1589C11.0292 15.1589 11.2105 15.2301 11.3486 15.3581L11.8825 15.8513C12.0202 15.9919 12.0975 16.1808 12.0981 16.3777V16.6374C12.0967 17.2277 12.3287 17.7947 12.7436 18.2147L16.9646 22.507L16.9689 22.5117C17.4374 22.9802 18.0728 23.2433 18.7353 23.2433C19.3978 23.2432 20.0332 22.98 20.5016 22.5115C20.97 22.043 21.2332 21.4076 21.2331 20.7451C21.2331 20.0826 20.9699 19.4472 20.5014 18.9788L14.1742 12.6516C14.1567 12.6342 14.1429 12.6135 14.1335 12.5907C14.124 12.568 14.1192 12.5436 14.1192 12.5189C14.1192 12.4943 14.124 12.4699 14.1335 12.4471C14.1429 12.4244 14.1567 12.4037 14.1742 12.3863L15.8434 10.717C15.9131 10.6473 15.9958 10.592 16.0868 10.5543C16.1779 10.5166 16.2755 10.4972 16.374 10.4972H16.7607Z" fill="#373737"/>
<path d="M9.89027 16.7813C8.6895 16.7788 7.53811 16.303 6.6859 15.457L6.03621 14.8074C5.96591 14.7372 5.87067 14.6978 5.77137 14.6978C5.67207 14.6978 5.57682 14.7372 5.50652 14.8074L1.52215 18.7711C0.811992 19.4813 0.558398 20.5266 0.90996 21.5503C0.929637 21.608 0.952965 21.6644 0.979804 21.7191C1.45277 22.6875 2.37059 23.25 3.37465 23.25C3.71995 23.2509 4.06198 23.1832 4.38093 23.0509C4.69989 22.9186 4.98943 22.7244 5.23277 22.4794L10.5465 17.1403C10.5689 17.1175 10.586 17.0901 10.5967 17.06C10.6074 17.0298 10.6114 16.9978 10.6084 16.966V16.9538C10.6063 16.9245 10.5983 16.896 10.5849 16.87C10.5715 16.8439 10.553 16.8208 10.5304 16.8021C10.5079 16.7834 10.4818 16.7695 10.4537 16.7611C10.4256 16.7528 10.3961 16.7502 10.367 16.7536C10.2087 16.7712 10.0496 16.7804 9.89027 16.7813Z" fill="#373737"/>
</svg>
