<svg width="24" height="24" viewBox="0 0 24 24" fill="none" xmlns="http://www.w3.org/2000/svg">
<path d="M15.415 7.34942C15.1256 7.34958 14.8452 7.45009 14.6215 7.63383C14.3979 7.81757 14.2449 8.07316 14.1885 8.35707C14.1322 8.64097 14.1761 8.93562 14.3126 9.19082C14.4492 9.44601 14.67 9.64596 14.9375 9.7566C15.2049 9.86724 15.5025 9.88172 15.7794 9.79758C16.0564 9.71343 16.2956 9.53587 16.4563 9.29514C16.617 9.05442 16.6892 8.76542 16.6607 8.47738C16.6323 8.18935 16.5048 7.9201 16.3 7.71552C16.1839 7.59918 16.046 7.50694 15.8941 7.44411C15.7422 7.38128 15.5794 7.3491 15.415 7.34942Z" fill="#373737"/>
<path d="M22.3802 2.34646C22.38 2.34506 22.38 2.34364 22.3802 2.34224C22.3406 2.16848 22.2531 2.00926 22.1278 1.88253C22.0025 1.75581 21.8443 1.66663 21.671 1.62505C20.2741 1.28427 18.0766 1.64755 15.6414 2.62255C13.1871 3.60693 10.8874 5.06005 9.33301 6.61724C8.83479 7.11281 8.37194 7.6427 7.94785 8.20302C6.90113 8.15614 5.9791 8.30521 5.20238 8.64411C2.49582 9.83521 1.72285 12.8835 1.51707 14.135C1.48729 14.3129 1.49895 14.4952 1.55114 14.6678C1.60333 14.8404 1.69464 14.9986 1.81796 15.1301C1.94129 15.2616 2.0933 15.363 2.26217 15.4261C2.43105 15.4893 2.61222 15.5127 2.7916 15.4944H2.79769L5.81269 15.1654C5.81644 15.2038 5.82066 15.239 5.82394 15.2713C5.86267 15.6387 6.02651 15.9816 6.288 16.2425L7.75941 17.7149C8.01997 17.9767 8.36281 18.1408 8.73019 18.1794L8.83097 18.1902L8.50285 21.2015C8.50285 21.2015 8.50285 21.2052 8.50285 21.2075C8.48608 21.3697 8.50334 21.5336 8.55352 21.6887C8.6037 21.8439 8.68569 21.9868 8.79427 22.1085C8.90284 22.2301 9.0356 22.3277 9.18406 22.3951C9.33252 22.4625 9.49341 22.4982 9.65644 22.4999C9.72161 22.4999 9.78668 22.4946 9.85097 22.484C11.1096 22.2815 14.1564 21.5179 15.3443 18.7968C15.6803 18.0252 15.8289 17.1069 15.7872 16.0621C16.3501 15.6389 16.8819 15.176 17.3786 14.6769C18.9457 13.1179 20.4035 10.8369 21.3775 8.41817C22.3474 6.01067 22.7125 3.79677 22.3802 2.34646ZM17.3618 10.544C16.9766 10.9295 16.4857 11.1922 15.9513 11.2987C15.4168 11.4052 14.8628 11.3508 14.3592 11.1424C13.8557 10.934 13.4252 10.5809 13.1224 10.1278C12.8196 9.67472 12.6579 9.14198 12.6579 8.597C12.6579 8.05202 12.8196 7.51929 13.1224 7.0662C13.4252 6.6131 13.8557 6.26001 14.3592 6.05158C14.8628 5.84316 15.4168 5.78877 15.9513 5.8953C16.4857 6.00183 16.9766 6.26449 17.3618 6.65005C17.6199 6.90433 17.8249 7.20741 17.9649 7.54166C18.1048 7.87591 18.1769 8.23465 18.1769 8.597C18.1769 8.95936 18.1048 9.3181 17.9649 9.65235C17.8249 9.9866 17.6199 10.2897 17.3618 10.544Z" fill="#373737"/>
<path d="M7.59066 18.1143C7.40928 18.0918 7.22592 18.1363 7.07504 18.2394C6.77551 18.4443 6.47457 18.6468 6.17082 18.8441C5.55629 19.2435 4.82129 18.5422 5.18644 17.9066L5.75597 16.9222C5.8374 16.8031 5.88274 16.6631 5.88655 16.5188C5.89037 16.3746 5.85251 16.2323 5.7775 16.1091C5.70249 15.9858 5.59352 15.8868 5.46366 15.8239C5.3338 15.7611 5.18855 15.737 5.04535 15.7546C4.41324 15.8345 3.82568 16.1224 3.37519 16.573C3.20363 16.745 2.68191 17.2672 2.40113 19.2571C2.32121 19.8286 2.27083 20.4039 2.25019 20.9807C2.24763 21.0808 2.26513 21.1804 2.30167 21.2736C2.33821 21.3668 2.39305 21.4518 2.46295 21.5235C2.53285 21.5952 2.6164 21.6521 2.70867 21.691C2.80094 21.7299 2.90006 21.7499 3.00019 21.7499H3.01894C3.59613 21.7295 4.17189 21.6794 4.74394 21.5999C6.73472 21.3186 7.25691 20.7965 7.42847 20.6249C7.88114 20.1742 8.16837 19.5839 8.24363 18.9496C8.26773 18.7522 8.21249 18.5534 8.09005 18.3968C7.96761 18.2401 7.78799 18.1385 7.59066 18.1143Z" fill="#373737"/>
</svg>
