<svg width="24" height="24" viewBox="0 0 24 24" fill="none" xmlns="http://www.w3.org/2000/svg">
<path d="M22.3402 10.6433L22.3327 10.64L2.31328 2.33661C2.1449 2.26613 1.96167 2.23849 1.77999 2.25616C1.59831 2.27383 1.42384 2.33626 1.27219 2.43786C1.11197 2.54285 0.980359 2.68602 0.889207 2.85449C0.798055 3.02297 0.750218 3.21146 0.75 3.40302V8.71349C0.750089 8.97535 0.841528 9.22899 1.00856 9.43067C1.17558 9.63235 1.40774 9.76945 1.665 9.81833L12.5836 11.8372C12.6265 11.8454 12.6652 11.8682 12.6931 11.9019C12.7209 11.9355 12.7362 11.9778 12.7362 12.0215C12.7362 12.0651 12.7209 12.1074 12.6931 12.1411C12.6652 12.1747 12.6265 12.1975 12.5836 12.2057L1.66547 14.2246C1.40828 14.2733 1.17614 14.4103 1.00903 14.6118C0.841932 14.8133 0.750328 15.0667 0.75 15.3285V20.6399C0.749876 20.8228 0.795166 21.0029 0.881807 21.164C0.968448 21.3251 1.09373 21.4621 1.24641 21.5629C1.43006 21.6849 1.6456 21.7501 1.86609 21.7504C2.01938 21.7502 2.1711 21.7195 2.31234 21.6599L22.3313 13.4038L22.3402 13.3996C22.6096 13.2838 22.8392 13.0915 23.0006 12.8466C23.1619 12.6016 23.2479 12.3148 23.2479 12.0215C23.2479 11.7282 23.1619 11.4413 23.0006 11.1963C22.8392 10.9514 22.6096 10.7591 22.3402 10.6433Z" fill="#373737"/>
</svg>
