<svg width="22" height="22" viewBox="0 0 22 22" fill="none" xmlns="http://www.w3.org/2000/svg">
<g clip-path="url(#clip0_1870_7981)">
<path d="M8.93742 22.0009C8.72015 22.002 8.50772 21.9367 8.32851 21.8139C8.1493 21.691 8.01185 21.5164 7.93453 21.3134L6.22265 16.8618C6.18798 16.7721 6.13494 16.6906 6.06694 16.6226C5.99894 16.5546 5.91747 16.5016 5.82777 16.4669L1.37492 14.7537C1.17208 14.6759 0.997619 14.5384 0.874555 14.3593C0.751491 14.1803 0.685611 13.9681 0.685611 13.7509C0.685611 13.5336 0.751491 13.3214 0.874555 13.1424C0.997619 12.9633 1.17208 12.8258 1.37492 12.748L5.82648 11.0361C5.91618 11.0014 5.99765 10.9484 6.06565 10.8804C6.13366 10.8124 6.18669 10.7309 6.22136 10.6412L7.93453 6.18836C8.01238 5.98552 8.1499 5.81106 8.32895 5.68799C8.508 5.56493 8.72016 5.49905 8.93742 5.49905C9.15468 5.49905 9.36684 5.56493 9.54589 5.68799C9.72494 5.81106 9.86246 5.98552 9.94031 6.18836L11.6522 10.6399C11.6869 10.7296 11.7399 10.8111 11.8079 10.8791C11.8759 10.9471 11.9574 11.0001 12.0471 11.0348L16.4728 12.7377C16.6839 12.8159 16.8658 12.9573 16.9937 13.1426C17.1215 13.3279 17.1892 13.5481 17.1874 13.7732C17.1841 13.9867 17.1169 14.1943 16.9943 14.3691C16.8717 14.5439 16.6995 14.6779 16.4999 14.7537L12.0484 16.4656C11.9587 16.5003 11.8772 16.5533 11.8092 16.6213C11.7412 16.6893 11.6881 16.7708 11.6535 16.8605L9.94031 21.3134C9.86299 21.5164 9.72554 21.691 9.54633 21.8139C9.36713 21.9367 9.15469 22.002 8.93742 22.0009Z" fill="#373737"/>
<path d="M3.78117 7.56336C3.65379 7.56335 3.5294 7.52475 3.42439 7.45265C3.31939 7.38055 3.23869 7.27833 3.19293 7.15945L2.46847 5.2757C2.45277 5.2345 2.42854 5.19709 2.39736 5.16591C2.36619 5.13474 2.32877 5.11051 2.28758 5.0948L0.403825 4.37035C0.284965 4.32458 0.182758 4.24387 0.110672 4.13886C0.038585 4.03386 0 3.90948 0 3.78211C0 3.65474 0.038585 3.53036 0.110672 3.42535C0.182758 3.32034 0.284965 3.23964 0.403825 3.19387L2.28758 2.46941C2.32873 2.45364 2.36611 2.42938 2.39728 2.39821C2.42844 2.36705 2.4527 2.32967 2.46847 2.28851L3.18648 0.421522C3.22697 0.311609 3.29665 0.214808 3.38803 0.141524C3.47941 0.06824 3.58903 0.021243 3.70511 0.00558429C3.84448 -0.0113582 3.98552 0.0187107 4.10586 0.091023C4.2262 0.163335 4.31895 0.273752 4.36941 0.404764L5.09386 2.28851C5.10964 2.32967 5.1339 2.36705 5.16506 2.39821C5.19623 2.42938 5.23361 2.45364 5.27476 2.46941L7.15851 3.19387C7.27737 3.23964 7.37958 3.32034 7.45167 3.42535C7.52375 3.53036 7.56234 3.65474 7.56234 3.78211C7.56234 3.90948 7.52375 4.03386 7.45167 4.13886C7.37958 4.24387 7.27737 4.32458 7.15851 4.37035L5.27476 5.0948C5.23357 5.11051 5.19615 5.13474 5.16498 5.16591C5.1338 5.19709 5.10957 5.2345 5.09386 5.2757L4.36941 7.15945C4.32365 7.27833 4.24295 7.38055 4.13794 7.45265C4.03294 7.52475 3.90855 7.56335 3.78117 7.56336Z" fill="#373737"/>
<path d="M17.1874 11.0009C17.0485 11.0008 16.9128 10.9587 16.7983 10.88C16.6837 10.8013 16.5957 10.6897 16.5459 10.56L15.5645 8.00894C15.5472 7.96399 15.5207 7.92317 15.4867 7.88912C15.4526 7.85507 15.4118 7.82855 15.3668 7.81129L12.8158 6.82988C12.6862 6.77994 12.5747 6.69192 12.4961 6.5774C12.4175 6.46289 12.3755 6.32725 12.3755 6.18836C12.3755 6.04946 12.4175 5.91383 12.4961 5.79931C12.5747 5.6848 12.6862 5.59677 12.8158 5.54683L15.3668 4.56543C15.4118 4.54816 15.4526 4.52165 15.4867 4.4876C15.5207 4.45355 15.5472 4.41272 15.5645 4.36777L16.5386 1.83476C16.5831 1.71498 16.6592 1.60949 16.7588 1.52952C16.8585 1.44954 16.9779 1.39807 17.1045 1.38058C17.2566 1.36217 17.4105 1.39509 17.5417 1.4741C17.6729 1.55311 17.774 1.6737 17.8289 1.81672L18.8104 4.36777C18.8276 4.41272 18.8541 4.45355 18.8882 4.4876C18.9222 4.52165 18.9631 4.54816 19.008 4.56543L21.5591 5.54683C21.6887 5.59677 21.8001 5.6848 21.8787 5.79931C21.9573 5.91383 21.9994 6.04946 21.9994 6.18836C21.9994 6.32725 21.9573 6.46289 21.8787 6.5774C21.8001 6.69192 21.6887 6.77994 21.5591 6.82988L19.008 7.81129C18.9631 7.82855 18.9222 7.85507 18.8882 7.88912C18.8541 7.92317 18.8276 7.96399 18.8104 8.00894L17.8289 10.56C17.7791 10.6897 17.6911 10.8013 17.5766 10.88C17.4621 10.9587 17.3264 11.0008 17.1874 11.0009Z" fill="#373737"/>
</g>
<defs>
<clipPath id="clip0_1870_7981">
<rect width="22" height="22" fill="white"/>
</clipPath>
</defs>
</svg>
