<svg width="24" height="24" viewBox="0 0 24 24" fill="none" xmlns="http://www.w3.org/2000/svg">
<path d="M18.4687 22.5007C18.3109 22.5013 18.1568 22.4521 18.0286 22.3601L12 17.9895L5.97139 22.3601C5.84259 22.4535 5.68742 22.5035 5.52832 22.503C5.36921 22.5024 5.21441 22.4512 5.08629 22.3569C4.95818 22.2625 4.86339 22.1299 4.81563 21.9781C4.76787 21.8263 4.76961 21.6633 4.82061 21.5126L7.17186 14.5484L1.07811 10.3695C0.946113 10.279 0.846491 10.1488 0.793797 9.99772C0.741103 9.84666 0.7381 9.6827 0.785225 9.5298C0.83235 9.37691 0.927135 9.24309 1.05573 9.1479C1.18432 9.05271 1.33999 9.00114 1.49998 9.00072H9.0178L11.2865 2.01868C11.3354 1.86794 11.4308 1.73656 11.559 1.64338C11.6871 1.55019 11.8415 1.5 12 1.5C12.1584 1.5 12.3128 1.55019 12.441 1.64338C12.5692 1.73656 12.6645 1.86794 12.7134 2.01868L14.9822 9.00306H22.5C22.6602 9.00298 22.8162 9.05419 22.9452 9.1492C23.0741 9.24421 23.1693 9.37802 23.2167 9.53103C23.2642 9.68404 23.2613 9.84822 23.2087 9.99952C23.1561 10.1508 23.0564 10.2813 22.9242 10.3718L16.8281 14.5484L19.178 21.5107C19.216 21.6234 19.2267 21.7436 19.2092 21.8613C19.1917 21.979 19.1464 22.0908 19.0771 22.1875C19.0078 22.2842 18.9165 22.3631 18.8107 22.4175C18.7049 22.472 18.5877 22.5005 18.4687 22.5007Z" fill="#373737"/>
</svg>
