<svg width="24" height="24" viewBox="0 0 24 24" fill="none" xmlns="http://www.w3.org/2000/svg">
<path d="M12 5.53125C11.7265 5.53125 11.4642 5.4226 11.2708 5.2292C11.0774 5.03581 10.9688 4.7735 10.9688 4.5V2.25C10.9688 1.9765 11.0774 1.71419 11.2708 1.5208C11.4642 1.3274 11.7265 1.21875 12 1.21875C12.2735 1.21875 12.5358 1.3274 12.7292 1.5208C12.9226 1.71419 13.0312 1.9765 13.0312 2.25V4.5C13.0312 4.7735 12.9226 5.03581 12.7292 5.2292C12.5358 5.4226 12.2735 5.53125 12 5.53125Z" fill="#373737"/>
<path d="M12 22.7812C11.7265 22.7812 11.4642 22.6726 11.2708 22.4792C11.0774 22.2858 10.9688 22.0235 10.9688 21.75V19.5C10.9688 19.2265 11.0774 18.9642 11.2708 18.7708C11.4642 18.5774 11.7265 18.4688 12 18.4688C12.2735 18.4688 12.5358 18.5774 12.7292 18.7708C12.9226 18.9642 13.0312 19.2265 13.0312 19.5V21.75C13.0312 22.0235 12.9226 22.2858 12.7292 22.4792C12.5358 22.6726 12.2735 22.7812 12 22.7812Z" fill="#373737"/>
<path d="M17.3034 7.72781C17.0995 7.72779 16.9002 7.66731 16.7306 7.55402C16.5611 7.44073 16.4289 7.27972 16.3509 7.09134C16.2728 6.90296 16.2523 6.69566 16.2921 6.49565C16.3318 6.29565 16.4299 6.11191 16.5741 5.96766L18.165 4.37672C18.3592 4.18753 18.6202 4.08245 18.8913 4.08424C19.1625 4.08602 19.422 4.19453 19.6137 4.38626C19.8055 4.57799 19.914 4.83753 19.9158 5.10867C19.9176 5.37982 19.8125 5.64076 19.6233 5.835L18.0323 7.42594C17.9367 7.52178 17.8231 7.59778 17.698 7.64959C17.5729 7.70139 17.4388 7.72797 17.3034 7.72781Z" fill="#373737"/>
<path d="M5.10562 19.9256C4.90165 19.9256 4.70227 19.8651 4.53269 19.7517C4.36311 19.6384 4.23095 19.4773 4.15293 19.2888C4.07491 19.1004 4.05452 18.893 4.09436 18.693C4.13419 18.4929 4.23246 18.3092 4.37672 18.165L5.96766 16.5741C6.06294 16.4762 6.17672 16.3983 6.30237 16.3448C6.42802 16.2913 6.56304 16.2633 6.69961 16.2624C6.83617 16.2615 6.97156 16.2877 7.0979 16.3396C7.22425 16.3914 7.33904 16.4678 7.4356 16.5644C7.53217 16.661 7.6086 16.7758 7.66045 16.9021C7.71229 17.0284 7.73853 17.1638 7.73763 17.3004C7.73673 17.437 7.70871 17.572 7.65521 17.6976C7.6017 17.8233 7.52377 17.9371 7.42594 18.0323L5.835 19.6233C5.73934 19.7192 5.62565 19.7954 5.50048 19.8472C5.37531 19.8991 5.24112 19.9258 5.10562 19.9256Z" fill="#373737"/>
<path d="M21.75 13.0312H19.5C19.2265 13.0312 18.9642 12.9226 18.7708 12.7292C18.5774 12.5358 18.4688 12.2735 18.4688 12C18.4688 11.7265 18.5774 11.4642 18.7708 11.2708C18.9642 11.0774 19.2265 10.9688 19.5 10.9688H21.75C22.0235 10.9688 22.2858 11.0774 22.4792 11.2708C22.6726 11.4642 22.7812 11.7265 22.7812 12C22.7812 12.2735 22.6726 12.5358 22.4792 12.7292C22.2858 12.9226 22.0235 13.0312 21.75 13.0312Z" fill="#373737"/>
<path d="M4.5 13.0312H2.25C1.9765 13.0312 1.71419 12.9226 1.5208 12.7292C1.3274 12.5358 1.21875 12.2735 1.21875 12C1.21875 11.7265 1.3274 11.4642 1.5208 11.2708C1.71419 11.0774 1.9765 10.9688 2.25 10.9688H4.5C4.7735 10.9688 5.03581 11.0774 5.2292 11.2708C5.4226 11.4642 5.53125 11.7265 5.53125 12C5.53125 12.2735 5.4226 12.5358 5.2292 12.7292C5.03581 12.9226 4.7735 13.0312 4.5 13.0312Z" fill="#373737"/>
<path d="M18.8944 19.9256C18.7589 19.9258 18.6247 19.8991 18.4995 19.8472C18.3743 19.7954 18.2607 19.7192 18.165 19.6233L16.5741 18.0323C16.3849 17.8381 16.2798 17.5772 16.2816 17.306C16.2834 17.0349 16.3919 16.7753 16.5836 16.5836C16.7753 16.3919 17.0349 16.2834 17.306 16.2816C17.5772 16.2798 17.8381 16.3849 18.0323 16.5741L19.6233 18.165C19.7675 18.3092 19.8658 18.4929 19.9056 18.693C19.9455 18.893 19.9251 19.1004 19.8471 19.2888C19.769 19.4773 19.6369 19.6384 19.4673 19.7517C19.2977 19.8651 19.0983 19.9256 18.8944 19.9256Z" fill="#373737"/>
<path d="M6.69656 7.72781C6.56116 7.72808 6.42704 7.70154 6.30194 7.64973C6.17684 7.59792 6.06323 7.52186 5.96766 7.42594L4.37672 5.835C4.18753 5.64076 4.08245 5.37982 4.08424 5.10867C4.08602 4.83753 4.19453 4.57799 4.38626 4.38626C4.57799 4.19453 4.83753 4.08602 5.10867 4.08424C5.37982 4.08245 5.64076 4.18753 5.835 4.37672L7.42594 5.96766C7.57007 6.11191 7.6682 6.29565 7.70793 6.49565C7.74765 6.69566 7.72719 6.90296 7.64913 7.09134C7.57107 7.27972 7.43891 7.44073 7.26936 7.55402C7.09981 7.66731 6.90048 7.72779 6.69656 7.72781Z" fill="#373737"/>
<path d="M12 16.7812C11.0544 16.7812 10.13 16.5008 9.34368 15.9755C8.55741 15.4501 7.94458 14.7034 7.5827 13.8297C7.22082 12.956 7.12613 11.9947 7.31062 11.0672C7.49511 10.1398 7.95048 9.28782 8.61915 8.61915C9.28782 7.95048 10.1398 7.49511 11.0672 7.31062C11.9947 7.12613 12.956 7.22082 13.8297 7.5827C14.7034 7.94458 15.4501 8.55741 15.9755 9.34368C16.5008 10.13 16.7812 11.0544 16.7812 12C16.7798 13.2676 16.2755 14.4829 15.3792 15.3792C14.4829 16.2755 13.2676 16.7798 12 16.7812Z" fill="#373737"/>
</svg>
